<?xml version="1.0" encoding="utf-8"?>
<!-- Generator: Adobe Illustrator 25.0.1, SVG Export Plug-In . SVG Version: 6.00 Build 0)  -->
<svg version="1.1" id="Layer_1" xmlns="http://www.w3.org/2000/svg" xmlns:xlink="http://www.w3.org/1999/xlink" x="0px" y="0px"
	 viewBox="0 0 600 1000" style="enable-background:new 0 0 600 1000;" xml:space="preserve">
<style type="text/css">
	.st0{fill:#FFE600;}
</style>
<path class="st0" d="M514.7,428.7l15.8-15.8V194.2c0-36.4-29.5-65.9-65.9-65.9H135.4c-36.4,0-65.9,29.5-65.9,65.9v329.3
	c0,36.4,29.5,65.9,65.9,65.9H354l18.4-18.4v270.2l0,0c0.4,27,22.3,48.7,49.4,48.7c27.1,0,49-21.8,49.4-48.7l0,0v-369l17.1-17.1
	v263.6c0,7.3,5.9,13.2,13.2,13.2s13.2-5.9,13.2-13.2L514.7,428.7L514.7,428.7z"/>
</svg>
