<?xml version="1.0" encoding="utf-8"?>
<!-- Generator: Adobe Illustrator 26.0.2, SVG Export Plug-In . SVG Version: 6.00 Build 0)  -->
<svg version="1.0" id="Layer_2" xmlns="http://www.w3.org/2000/svg" xmlns:xlink="http://www.w3.org/1999/xlink" x="0px" y="0px"
	 viewBox="0 0 300 78" style="enable-background:new 0 0 300 78;" xml:space="preserve">
<style type="text/css">
	.st0{fill:#FFE600;}
</style>
<path class="st0" d="M3.91,23.57c0-1.65,0.59-3.06,1.76-4.24c1.17-1.17,2.56-1.76,4.16-1.76h14.7c1.65,0,3.06,0.59,4.24,1.76
	c1.17,1.18,1.76,2.59,1.76,4.24v9.67h-9.38v-6.38h-7.95v29.78h7.95v-6.38h9.38v9.75c0,1.6-0.59,2.99-1.76,4.16
	c-1.18,1.18-2.59,1.76-4.24,1.76H9.83c-1.6,0-2.99-0.59-4.16-1.76C4.49,63,3.91,61.62,3.91,60.02V23.57z"/>
<path class="st0" d="M45.16,37.14h7.95V17.57h9.38v48.38h-9.38v-19.5h-7.95v19.5h-9.3V17.57h9.3V37.14z"/>
<path class="st0" d="M94.43,57.99c0,1.1-0.21,2.14-0.64,3.11c-0.43,0.98-1,1.81-1.72,2.51c-0.73,0.7-1.56,1.26-2.51,1.69
	c-0.95,0.43-1.98,0.64-3.08,0.64H75.76c-2.25,0-4.14-0.76-5.66-2.29c-1.53-1.52-2.29-3.41-2.29-5.66V25.52
	c0-1.1,0.21-2.12,0.64-3.08c0.42-0.95,0.99-1.79,1.69-2.51c0.7-0.72,1.54-1.3,2.51-1.72c0.98-0.42,2.01-0.64,3.11-0.64h10.72
	c1.1,0,2.12,0.21,3.08,0.64c0.95,0.43,1.79,1,2.51,1.72c0.72,0.73,1.3,1.56,1.72,2.51c0.42,0.95,0.64,1.98,0.64,3.08V57.99z
	 M85.06,26.87h-7.95v29.78h7.95V26.87z"/>
<path class="st0" d="M99.76,17.57h11.02l9.3,29.25h0.22l-1.2-8.48V17.57h9.38v48.38h-11.02l-9.3-29.17h-0.3l1.2,8.4v20.78h-9.3
	V17.57z"/>
<path class="st0" d="M133.81,23.57c0-1.65,0.59-3.06,1.76-4.24c1.17-1.17,2.56-1.76,4.16-1.76h14.7c1.65,0,3.06,0.59,4.24,1.76
	c1.17,1.18,1.76,2.59,1.76,4.24v9.67h-9.38v-6.38h-7.95v29.78h7.95v-10.2h-3.97v-9.3h13.35v22.88c0,1.6-0.59,2.99-1.76,4.16
	c-1.17,1.18-2.59,1.76-4.24,1.76h-14.7c-1.6,0-2.99-0.59-4.16-1.76c-1.18-1.17-1.76-2.56-1.76-4.16V23.57z"/>
<path class="st0" d="M165.75,17.57h9.3v39.08h17.33v9.3h-26.62V17.57z"/>
<path class="st0" d="M197.7,23.57c0-1.65,0.59-3.06,1.76-4.24c1.17-1.17,2.56-1.76,4.16-1.76h14.7c1.65,0,3.06,0.59,4.24,1.76
	c1.17,1.18,1.76,2.59,1.76,4.24v42.38h-9.38V52.89H207v13.05h-9.3V23.57z M214.95,43.74V26.87H207v16.88H214.95z"/>
<path class="st0" d="M229.65,17.57h11.03l9.3,29.25h0.22l-1.2-8.48V17.57h9.38v48.38h-11.02l-9.3-29.17h-0.3l1.2,8.4v20.78h-9.3
	V17.57z"/>
<path class="st0" d="M290.33,57.99c0,1.1-0.21,2.14-0.64,3.11c-0.42,0.98-1,1.81-1.72,2.51c-0.73,0.7-1.56,1.26-2.51,1.69
	c-0.95,0.43-1.98,0.64-3.08,0.64H263.7V17.57h18.67c1.1,0,2.12,0.21,3.08,0.64c0.95,0.43,1.79,1,2.51,1.72
	c0.72,0.73,1.3,1.56,1.72,2.51c0.42,0.95,0.64,1.98,0.64,3.08V57.99z M280.95,26.87H273v29.78h7.95V26.87z"/>
</svg>
